<svg width="73" height="46" viewBox="0 0 73 46" fill="none" xmlns="http://www.w3.org/2000/svg">
<path d="M3.1875 0H10.1875L23.3438 35.0938L36.4688 0H43.4688L26.0938 45.5H20.5312L3.1875 0ZM0 0H6.65625L7.8125 30.375V45.5H0V0ZM40 0H46.6875V45.5H38.8438V30.375L40 0ZM67.8438 0V6.25H46.6875V45.5H38.875V0H67.8438ZM44.3125 17.4688H55.75C59.2083 17.4688 62.1667 18.0521 64.625 19.2188C67.0833 20.3646 68.9583 21.9792 70.25 24.0625C71.5417 26.1458 72.1875 28.5729 72.1875 31.3438C72.1875 33.4271 71.8229 35.3333 71.0938 37.0625C70.3646 38.7917 69.2917 40.2917 67.875 41.5625C66.4583 42.8125 64.7292 43.7812 62.6875 44.4688C60.6667 45.1562 58.3542 45.5 55.75 45.5H38.875V0H46.75V39.2812H55.75C57.7292 39.2812 59.3542 38.9167 60.625 38.1875C61.8958 37.4375 62.8333 36.4583 63.4375 35.25C64.0625 34.0417 64.375 32.7188 64.375 31.2812C64.375 29.8854 64.0625 28.6146 63.4375 27.4688C62.8333 26.3229 61.8958 25.4062 60.625 24.7188C59.3542 24.0312 57.7292 23.6875 55.75 23.6875H44.3125V17.4688Z" fill="#FC4E2F"/>
</svg>
