<svg width="360" height="100" viewBox="0 0 360 100" fill="none" xmlns="http://www.w3.org/2000/svg">
<rect width="360" height="100" rx="25" fill="#FC4E2F"/>
<path d="M30.3047 35.5625H34.6797L42.9023 57.4961L51.1055 35.5625H55.4805L44.6211 64H41.1445L30.3047 35.5625ZM28.3125 35.5625H32.4727L33.1953 54.5469V64H28.3125V35.5625ZM53.3125 35.5625H57.4922V64H52.5898V54.5469L53.3125 35.5625ZM70.3398 35.5625V39.4688H57.1172V64H52.2344V35.5625H70.3398ZM55.6328 46.4805H62.7812C64.9427 46.4805 66.7917 46.8451 68.3281 47.5742C69.8646 48.2904 71.0365 49.2995 71.8438 50.6016C72.651 51.9036 73.0547 53.4206 73.0547 55.1523C73.0547 56.4544 72.8268 57.6458 72.3711 58.7266C71.9154 59.8073 71.2448 60.7448 70.3594 61.5391C69.474 62.3203 68.3932 62.9258 67.1172 63.3555C65.8542 63.7852 64.4089 64 62.7812 64H52.2344V35.5625H57.1562V60.1133H62.7812C64.0182 60.1133 65.0339 59.8854 65.8281 59.4297C66.6224 58.9609 67.2083 58.349 67.5859 57.5938C67.9766 56.8385 68.1719 56.0117 68.1719 55.1133C68.1719 54.2409 67.9766 53.4466 67.5859 52.7305C67.2083 52.0143 66.6224 51.4414 65.8281 51.0117C65.0339 50.582 64.0182 50.3672 62.7812 50.3672H55.6328V46.4805Z" fill="#F7EDED"/>
<path d="M106.781 35.5625H111.156L119.379 57.4961L127.582 35.5625H131.957L121.098 64H117.621L106.781 35.5625ZM104.789 35.5625H108.949L109.672 54.5469V64H104.789V35.5625ZM129.789 35.5625H133.969V64H129.066V54.5469L129.789 35.5625ZM145.453 61.6953L151.195 42.8672H156.234L147.758 67.2227C147.562 67.7435 147.309 68.3099 146.996 68.9219C146.684 69.5339 146.273 70.1133 145.766 70.6602C145.271 71.2201 144.652 71.6693 143.91 72.0078C143.168 72.3594 142.27 72.5352 141.215 72.5352C140.798 72.5352 140.395 72.4961 140.004 72.418C139.626 72.3529 139.268 72.2812 138.93 72.2031L138.91 68.6094C139.04 68.6224 139.197 68.6354 139.379 68.6484C139.574 68.6615 139.73 68.668 139.848 68.668C140.629 68.668 141.28 68.5703 141.801 68.375C142.322 68.1927 142.745 67.8932 143.07 67.4766C143.409 67.0599 143.695 66.5 143.93 65.7969L145.453 61.6953ZM142.211 42.8672L147.23 58.6875L148.07 63.6484L144.809 64.4883L137.133 42.8672H142.211ZM172.309 42.8672V46.6172H161.996V42.8672H172.309ZM176 42.8672V64H171.293V42.8672H176ZM160.844 42.8672H165.492L164.926 53.3164C164.848 54.8659 164.691 56.2331 164.457 57.418C164.236 58.5898 163.936 59.599 163.559 60.4453C163.181 61.2786 162.719 61.9557 162.172 62.4766C161.625 62.9974 160.987 63.3815 160.258 63.6289C159.529 63.8763 158.708 64 157.797 64H156.332L156.312 60.1328L157.055 60.0742C157.536 60.0352 157.953 59.9115 158.305 59.7031C158.656 59.4818 158.956 59.1693 159.203 58.7656C159.464 58.362 159.672 57.8411 159.828 57.2031C159.997 56.5651 160.128 55.8099 160.219 54.9375C160.323 54.0651 160.401 53.0495 160.453 51.8906L160.844 42.8672ZM184.496 49.5859H190.727C192.549 49.5859 194.099 49.8919 195.375 50.5039C196.651 51.1159 197.621 51.9688 198.285 53.0625C198.962 54.1432 199.301 55.3802 199.301 56.7734C199.301 57.8021 199.112 58.7591 198.734 59.6445C198.357 60.5169 197.797 61.2786 197.055 61.9297C196.326 62.5807 195.427 63.0885 194.359 63.4531C193.305 63.8177 192.094 64 190.727 64H181.371V42.8672H186.098V60.2695H190.727C191.664 60.2695 192.413 60.1068 192.973 59.7812C193.533 59.4557 193.936 59.0326 194.184 58.5117C194.444 57.9909 194.574 57.4375 194.574 56.8516C194.574 56.2526 194.444 55.6862 194.184 55.1523C193.936 54.6185 193.533 54.1823 192.973 53.8438C192.413 53.5052 191.664 53.3359 190.727 53.3359H184.496V49.5859ZM210.922 42.8672V64H206.195V42.8672H210.922ZM217.855 42.8672V46.5781H199.379V42.8672H217.855ZM227.367 61.6953L233.109 42.8672H238.148L229.672 67.2227C229.477 67.7435 229.223 68.3099 228.91 68.9219C228.598 69.5339 228.188 70.1133 227.68 70.6602C227.185 71.2201 226.566 71.6693 225.824 72.0078C225.082 72.3594 224.184 72.5352 223.129 72.5352C222.712 72.5352 222.309 72.4961 221.918 72.418C221.54 72.3529 221.182 72.2812 220.844 72.2031L220.824 68.6094C220.954 68.6224 221.111 68.6354 221.293 68.6484C221.488 68.6615 221.645 68.668 221.762 68.668C222.543 68.668 223.194 68.5703 223.715 68.375C224.236 68.1927 224.659 67.8932 224.984 67.4766C225.323 67.0599 225.609 66.5 225.844 65.7969L227.367 61.6953ZM224.125 42.8672L229.145 58.6875L229.984 63.6484L226.723 64.4883L219.047 42.8672H224.125ZM259.34 35.5625V39.4688H246.117V64H241.234V35.5625H259.34ZM244.633 46.4805H251.781C253.943 46.4805 255.792 46.8451 257.328 47.5742C258.865 48.2904 260.036 49.2995 260.844 50.6016C261.651 51.9036 262.055 53.4206 262.055 55.1523C262.055 56.4544 261.827 57.6458 261.371 58.7266C260.915 59.8073 260.245 60.7448 259.359 61.5391C258.474 62.3203 257.393 62.9258 256.117 63.3555C254.854 63.7852 253.409 64 251.781 64H241.234V35.5625H246.156V60.1133H251.781C253.018 60.1133 254.034 59.8854 254.828 59.4297C255.622 58.9609 256.208 58.349 256.586 57.5938C256.977 56.8385 257.172 56.0117 257.172 55.1133C257.172 54.2409 256.977 53.4466 256.586 52.7305C256.208 52.0143 255.622 51.4414 254.828 51.0117C254.034 50.582 253.018 50.3672 251.781 50.3672H244.633V46.4805ZM277.914 59.7617V49.6836C277.914 48.9284 277.777 48.2773 277.504 47.7305C277.23 47.1836 276.814 46.7604 276.254 46.4609C275.707 46.1615 275.017 46.0117 274.184 46.0117C273.415 46.0117 272.751 46.1419 272.191 46.4023C271.632 46.6628 271.195 47.0143 270.883 47.457C270.57 47.8997 270.414 48.401 270.414 48.9609H265.727C265.727 48.1276 265.928 47.3203 266.332 46.5391C266.736 45.7578 267.322 45.0612 268.09 44.4492C268.858 43.8372 269.776 43.3555 270.844 43.0039C271.911 42.6523 273.109 42.4766 274.438 42.4766C276.026 42.4766 277.432 42.7435 278.656 43.2773C279.893 43.8112 280.863 44.6185 281.566 45.6992C282.283 46.7669 282.641 48.1081 282.641 49.7227V59.1172C282.641 60.0807 282.706 60.9466 282.836 61.7148C282.979 62.4701 283.181 63.1276 283.441 63.6875V64H278.617C278.396 63.4922 278.22 62.8477 278.09 62.0664C277.973 61.2721 277.914 60.5039 277.914 59.7617ZM278.598 51.1484L278.637 54.0586H275.258C274.385 54.0586 273.617 54.1432 272.953 54.3125C272.289 54.4688 271.736 54.7031 271.293 55.0156C270.85 55.3281 270.518 55.7057 270.297 56.1484C270.076 56.5911 269.965 57.0924 269.965 57.6523C269.965 58.2122 270.095 58.7266 270.355 59.1953C270.616 59.651 270.993 60.0091 271.488 60.2695C271.996 60.5299 272.608 60.6602 273.324 60.6602C274.288 60.6602 275.128 60.4648 275.844 60.0742C276.573 59.6706 277.146 59.1823 277.562 58.6094C277.979 58.0234 278.201 57.4701 278.227 56.9492L279.75 59.0391C279.594 59.5729 279.327 60.1458 278.949 60.7578C278.572 61.3698 278.077 61.9557 277.465 62.5156C276.866 63.0625 276.143 63.5117 275.297 63.8633C274.464 64.2148 273.5 64.3906 272.406 64.3906C271.026 64.3906 269.796 64.1172 268.715 63.5703C267.634 63.0104 266.788 62.2617 266.176 61.3242C265.564 60.3737 265.258 59.2995 265.258 58.1016C265.258 56.9818 265.466 55.9922 265.883 55.1328C266.312 54.2604 266.938 53.5312 267.758 52.9453C268.591 52.3594 269.607 51.9167 270.805 51.6172C272.003 51.3047 273.37 51.1484 274.906 51.1484H278.598ZM301.996 51.6953V55.4062H291.059V51.6953H301.996ZM292.426 42.8672V64H287.719V42.8672H292.426ZM305.395 42.8672V64H300.688V42.8672H305.395ZM315.492 42.8672V64H310.785V42.8672H315.492ZM329.281 42.8672L319.77 55.582H314.398L313.773 51.3242H317.699L323.402 42.8672H329.281ZM323.773 64L317.406 54.7812L321.117 52.1055L329.965 64H323.773Z" fill="#F7EDED"/>
</svg>
